# xmcd
#
# Track frame offsets: 
#        150
#        15636
#        29596
#        47649
#        69204
#        80055
#        100366
#        117477
#        141882
#        166388
#        185271
#        199216
#        205721
#        228988
#        246680
#
# Disc length: 3511 seconds
#
# Revision: 0
# Processed by: cddbd v1.5.2PL0 Copyright (c) Steve Scherf et al.
# Submitted via: ExactAudioCopy v0.99pb5
#
DISCID=d60db50f
DTITLE=Laura Cantrell - At The BBC
DYEAR=2016
DGENRE=Country
TTITLE0=Wait
TTITLE1=Rainboy
TTITLE2=Old Downtown
TTITLE3=Mountain Fern
TTITLE4=Hong Kong Blues
TTITLE5=Khaki And Corduroy
TTITLE6=All Blue
TTITLE7=Bees
TTITLE8=Christmas Letter Home
TTITLE9=New Years Resolution
TTITLE10=Oh So Many Years
TTITLE11=I Lost You But I Found Country Music
TTITLE12=The Whiskey Makes You Sweeter
TTITLE13=Legend In My Time
TTITLE14=When The Roses Bloom Again
EXTD=
EXTT0=
EXTT1=
EXTT2=
EXTT3=
EXTT4=
EXTT5=
EXTT6=
EXTT7=
EXTT8=
EXTT9=
EXTT10=
EXTT11=
EXTT12=
EXTT13=
EXTT14=
PLAYORDER=
